<svg width="205" height="113" viewBox="0 0 205 113" fill="none" xmlns="http://www.w3.org/2000/svg">
<path d="M141.509 42.924H63.492V70.076H141.509V42.924Z" fill="white"/>
<path d="M10.902 35.286V38.044C9.88099 37.42 8.76199 36.993 7.49699 36.993C3.74899 36.993 0.717987 40.029 0.717987 43.771V69.228C0.717987 72.97 3.74899 76.006 7.49699 76.006C8.76199 76.006 9.88099 75.579 10.902 74.955V77.713C10.902 84.628 16.088 90.269 22.774 91.109V21.89C16.088 22.73 10.902 28.371 10.902 35.286Z" fill="white"/>
<path d="M197.503 36.993C196.238 36.993 195.119 37.42 194.099 38.044V35.286C194.099 28.371 188.912 22.73 182.227 21.89V91.111C188.913 90.27 194.099 84.63 194.099 77.715V74.957C195.12 75.581 196.239 76.008 197.503 76.008C201.251 76.008 204.282 72.972 204.282 69.23V43.773C204.282 40.029 201.251 36.993 197.503 36.993Z" fill="white"/>
<path d="M43.128 0.53302C35.641 0.53302 29.562 6.61202 29.562 14.108V98.891C29.562 106.387 35.642 112.466 43.128 112.466C50.624 112.466 56.704 106.387 56.704 98.891V14.108C56.704 6.61202 50.624 0.53302 43.128 0.53302Z" fill="white"/>
<path d="M161.872 0.53302C154.376 0.53302 148.296 6.61202 148.296 14.108V98.891C148.296 106.387 154.376 112.466 161.872 112.466C169.359 112.466 175.438 106.387 175.438 98.891V14.108C175.438 6.61202 169.359 0.53302 161.872 0.53302Z" fill="white"/>
</svg>
